<svg xmlns="http://www.w3.org/2000/svg" viewBox="0 0 1719.52 918.14"><defs><style>.cls-1{fill:#fff;}.cls-2{fill:#798184;stroke:#4d4d4d;stroke-miterlimit:10;stroke-width:4px;}.cls-3{fill:#bdccd4;}.cls-4{fill:#4d4d4d;}.cls-5{fill:#999;}.cls-6{fill:#e6e6e6;}</style></defs><title>island</title><g id="Laag_2" data-name="Laag 2"><g id="Laag_5" data-name="Laag 5"><polygon class="cls-1" points="2.82 449 106.76 746 254.52 817 443.04 802 647.86 916 882.24 853 1094.19 858 1258.26 813 1483.46 822 1620.01 766 1716.82 449 2.82 449"/><path class="cls-1" d="M859.82,629C631,629,416,610.08,254.24,575.74c-78.53-16.68-140.17-36.09-183.18-57.68C27.11,496,4.82,472.75,4.82,449s22.29-47,66.24-69.06c43-21.59,104.65-41,183.18-57.68C416,287.92,631,269,859.82,269s443.84,18.92,605.57,53.26c78.54,16.68,140.17,36.09,183.18,57.68,44,22.08,66.25,45.31,66.25,69.06s-22.29,47-66.25,69.06c-43,21.59-104.64,41-183.18,57.68C1303.66,610.08,1088.6,629,859.82,629Z"/><path class="cls-1" d="M859.82,271c115.57,0,227.69,4.81,333.22,14.29,101.9,9.15,193.39,22.25,271.94,38.93,78.37,16.64,139.84,36,182.7,57.51,21.47,10.78,37.9,22,48.85,33.37s16.29,22.62,16.29,33.9-5.48,22.68-16.29,33.9-27.38,22.59-48.85,33.37c-42.86,21.52-104.33,40.87-182.7,57.51-78.55,16.68-170,29.78-271.94,38.93C1087.51,622.19,975.39,627,859.82,627s-227.69-4.81-333.23-14.29c-101.89-9.15-193.38-22.25-271.93-38.93-78.37-16.64-139.84-36-182.7-57.51-21.47-10.78-37.9-22-48.85-33.37S6.82,460.28,6.82,449s5.48-22.68,16.29-33.9S50.49,392.51,72,381.73c42.86-21.52,104.33-40.87,182.7-57.51,78.55-16.68,170-29.78,271.93-38.93C632.13,275.81,744.24,271,859.82,271m0-4c-473.31,0-857,81.48-857,182s383.69,182,857,182,857-81.48,857-182-383.69-182-857-182Z"/><rect class="cls-1" x="1185.82" y="314" width="58" height="91"/><polygon class="cls-1" points="1214.82 134 1060.69 359 1214.82 359 1214.82 134"/><polygon class="cls-1" points="1214.82 77 1093.94 256 1214.82 256 1214.82 77"/><polygon class="cls-1" points="1214.82 0 1110.82 154 1214.82 154 1214.82 0"/><polygon class="cls-1" points="1214.82 134 1368.94 359 1214.82 359 1214.82 134"/><polygon class="cls-1" points="1214.82 77 1335.7 256 1214.82 256 1214.82 77"/><polygon class="cls-1" points="1214.82 0 1318.82 154 1214.82 154 1214.82 0"/><rect class="cls-1" x="1064.14" y="390.49" width="42.39" height="66.51"/><polygon class="cls-1" points="1085.34 258.94 972.69 423.38 1085.34 423.38 1085.34 258.94"/><polygon class="cls-1" points="1085.34 217.28 996.99 348.1 1085.34 348.1 1085.34 217.28"/><polygon class="cls-1" points="1085.34 161 1009.33 273.55 1085.34 273.55 1085.34 161"/><polygon class="cls-1" points="1085.34 258.94 1197.98 423.38 1085.34 423.38 1085.34 258.94"/><polygon class="cls-1" points="1085.34 217.28 1173.69 348.1 1085.34 348.1 1085.34 217.28"/><polygon class="cls-1" points="1085.34 161 1161.35 273.55 1085.34 273.55 1085.34 161"/><polygon class="cls-2" points="2.82 449 106.76 746 254.52 817 443.04 802 647.86 916 882.24 853 1094.19 858 1258.26 813 1483.46 822 1620.01 766 1716.82 449 2.82 449"/><path class="cls-3" d="M859.82,629C631,629,416,610.08,254.24,575.74c-78.53-16.68-140.17-36.09-183.18-57.68C27.11,496,4.82,472.75,4.82,449s22.29-47,66.24-69.06c43-21.59,104.65-41,183.18-57.68C416,287.92,631,269,859.82,269s443.84,18.92,605.57,53.26c78.54,16.68,140.17,36.09,183.18,57.68,44,22.08,66.25,45.31,66.25,69.06s-22.29,47-66.25,69.06c-43,21.59-104.64,41-183.18,57.68C1303.66,610.08,1088.6,629,859.82,629Z"/><path class="cls-4" d="M859.82,271c115.57,0,227.69,4.81,333.22,14.29,101.9,9.15,193.39,22.25,271.94,38.93,78.37,16.64,139.84,36,182.7,57.51,21.47,10.78,37.9,22,48.85,33.37s16.29,22.62,16.29,33.9-5.48,22.68-16.29,33.9-27.38,22.59-48.85,33.37c-42.86,21.52-104.33,40.87-182.7,57.51-78.55,16.68-170,29.78-271.94,38.93C1087.51,622.19,975.39,627,859.82,627s-227.69-4.81-333.23-14.29c-101.89-9.15-193.38-22.25-271.93-38.93-78.37-16.64-139.84-36-182.7-57.51-21.47-10.78-37.9-22-48.85-33.37S6.82,460.28,6.82,449s5.48-22.68,16.29-33.9S50.49,392.51,72,381.73c42.86-21.52,104.33-40.87,182.7-57.51,78.55-16.68,170-29.78,271.93-38.93C632.13,275.81,744.24,271,859.82,271m0-4c-473.31,0-857,81.48-857,182s383.69,182,857,182,857-81.48,857-182-383.69-182-857-182Z"/><rect class="cls-5" x="1185.82" y="314" width="58" height="91"/><polygon class="cls-1" points="1214.82 134 1060.69 359 1214.82 359 1214.82 134"/><polygon class="cls-1" points="1214.82 77 1093.94 256 1214.82 256 1214.82 77"/><polygon class="cls-1" points="1214.82 0 1110.82 154 1214.82 154 1214.82 0"/><polygon class="cls-6" points="1214.82 134 1368.94 359 1214.82 359 1214.82 134"/><polygon class="cls-6" points="1214.82 77 1335.7 256 1214.82 256 1214.82 77"/><polygon class="cls-6" points="1214.82 0 1318.82 154 1214.82 154 1214.82 0"/><rect class="cls-5" x="1064.14" y="390.49" width="42.39" height="66.51"/><polygon class="cls-1" points="1085.34 258.94 972.69 423.38 1085.34 423.38 1085.34 258.94"/><polygon class="cls-1" points="1085.34 217.28 996.99 348.1 1085.34 348.1 1085.34 217.28"/><polygon class="cls-1" points="1085.34 161 1009.33 273.55 1085.34 273.55 1085.34 161"/><polygon class="cls-6" points="1085.34 258.94 1197.98 423.38 1085.34 423.38 1085.34 258.94"/><polygon class="cls-6" points="1085.34 217.28 1173.69 348.1 1085.34 348.1 1085.34 217.28"/><polygon class="cls-6" points="1085.34 161 1161.35 273.55 1085.34 273.55 1085.34 161"/></g></g></svg>